<svg width="240" height="39" viewBox="0 0 240 39" fill="none" xmlns="http://www.w3.org/2000/svg">
<g clip-path="url(#clip0_10_139)">
<path d="M27.9564 0.868659C20.2344 0.864706 12.1774 2.5842 4.04549 4.8146C3.01288 5.02014 2.00527 5.68818 1.47247 6.51432C0.982654 7.29303 0.804721 8.07471 0.651779 8.89394C-0.137922 13.2697 -0.0419581 17.5665 0.12198 22.3277C0.157966 23.4177 0.321904 24.7093 0.836709 25.4949C1.37451 26.2885 2.29616 26.7925 3.39674 26.9575C4.80281 27.1614 6.21329 27.3344 7.62714 27.4763L7.31525 36.0718C7.26727 36.7556 7.60514 37.3238 8.02499 37.6509C8.40084 37.9336 8.81968 38.0591 9.24952 38.0907C10.1092 38.1549 11.1178 37.7913 11.6186 36.8485C13.8128 32.6743 15.1893 30.8313 17.9332 28.0584C25.0885 28.2323 31.3352 27.839 38.4075 27.3221C40.9075 27.2579 42.6239 25.237 43.0777 23.6233C44.4342 19.4411 44.6451 14.2787 44.7891 9.05996C44.85 6.99163 44.1243 4.96085 42.8398 3.88765C41.6183 2.90833 40.1388 2.55356 38.7833 2.1899C35.0178 1.34695 31.2512 0.894353 27.9564 0.868659ZM38.2425 4.13965C39.6 4.5043 40.7966 4.85511 41.5513 5.46089C42.8108 6.7841 42.7688 7.6646 42.7508 9.09257C42.6089 14.1542 42.363 19.0666 41.2074 22.7892C40.7096 24.1776 39.8419 25.1659 38.2025 25.3151C30.9973 25.8418 24.7456 26.2489 17.5034 26.0454C17.3624 26.0409 17.2219 26.0651 17.0907 26.1164C16.9596 26.1678 16.8404 26.2451 16.7407 26.3438C13.6978 29.3816 12.1414 31.4924 9.8223 35.9058C9.76832 36.0066 9.65137 36.0678 9.50742 36.0787C9.41046 36.0738 9.37148 35.9996 9.36548 35.9324L9.67936 26.6116C9.69835 26.1086 9.27851 25.6283 8.7727 25.574C7.08146 25.4143 5.39483 25.21 3.71462 24.9613C2.98889 24.8516 2.72099 24.655 2.52207 24.3624C2.1762 23.5472 2.1842 23.0432 2.15721 22.2595C1.99527 17.5408 1.9153 13.417 2.64802 9.31393C2.716 8.70717 2.94591 8.08657 3.18982 7.56776C3.59366 6.94321 4.21243 6.8513 4.83319 6.68133C12.7862 4.51023 20.5672 2.88659 27.8925 2.88165C31.4831 3.01012 35.2537 3.36587 38.2425 4.13965ZM10.7739 12.1343C9.67836 13.4318 9.78732 15.1938 10.634 16.3737C11.0758 16.9914 11.7656 17.4884 12.6052 17.6011C13.6958 17.69 14.3876 17.2532 15.1343 16.7512C16.4868 15.5891 16.6237 13.5613 15.5951 12.0967C15.0713 11.3506 14.2336 10.903 13.378 10.8714C12.2064 10.8832 11.4107 11.4 10.7739 12.1333V12.1343ZM22.6255 11.0749C21.5339 11.1095 20.6512 11.8566 20.1124 12.663C19.4956 13.585 19.1358 14.7392 19.6346 15.8707C20.5942 18.0478 23.91 18.0211 25.2325 15.8085C25.8422 14.7886 25.6863 13.6295 25.2325 12.7885C24.7806 11.9485 24.0969 11.2637 23.1023 11.1066C22.9447 11.0809 22.785 11.0703 22.6255 11.0749ZM32.2468 11.2795C31.9069 11.2716 31.5571 11.3032 31.2292 11.3892C29.9177 11.7351 28.8011 13.0731 28.97 14.7857C29.056 15.6474 29.4569 16.4874 30.1796 17.0665C30.9023 17.6446 31.9519 17.9035 33.0585 17.6792C34.33 17.4222 35.1177 16.4093 35.3806 15.431C35.6435 14.4526 35.5775 13.4555 34.9668 12.6472C34.649 12.2294 34.2388 11.889 33.7675 11.652C33.2963 11.4149 32.7765 11.2875 32.2478 11.2795H32.2468ZM13.289 12.8834C13.5339 12.8853 13.7268 12.9624 13.9257 13.245C14.3706 13.8795 14.2466 14.841 13.7978 15.2264C13.351 15.6118 13.0721 15.6454 12.8761 15.6197C12.6802 15.593 12.4813 15.4596 12.3034 15.2106C11.9635 14.7363 11.8635 13.9694 12.3104 13.4219C12.5483 13.1097 12.9851 12.915 13.29 12.8834H13.289ZM22.7684 13.1037C22.8064 13.1097 23.2322 13.3537 23.4361 13.7322C23.6401 14.1107 23.6781 14.4625 23.4841 14.7857C22.9073 15.7502 21.6808 15.4893 21.4949 15.0693C21.4249 14.9092 21.4779 14.2659 21.8148 13.7648C22.1496 13.2618 22.5715 13.0731 22.7684 13.1027V13.1037ZM33.3284 13.8429C33.3904 13.9249 33.5413 14.4754 33.4244 14.9122C33.3064 15.3489 33.1145 15.6187 32.6447 15.7136C32.0429 15.8361 31.705 15.7136 31.4521 15.509C31.1982 15.3065 31.0273 14.9635 30.9903 14.5969C30.9003 13.6878 31.2302 13.4773 31.754 13.3389C32.3638 13.1907 33.0535 13.4496 33.3284 13.8429Z" fill="white"/>
<path d="M57.5882 4.93702C57.6042 4.68008 57.6992 4.44884 57.8751 4.24428C57.9607 4.14399 58.0683 4.06429 58.1897 4.01122C58.3111 3.95814 58.4432 3.93308 58.5758 3.93793H65.3992C65.6292 3.93793 65.8661 4.0328 66.111 4.22155C66.2257 4.303 66.319 4.41049 66.383 4.53499C66.4471 4.65949 66.4799 4.79736 66.4788 4.93702V15.7016H77.8955V4.93702C77.8955 4.66427 77.9915 4.43006 78.1824 4.23341C78.3743 4.03576 78.6222 3.93694 78.9291 3.93694H85.6606C85.9664 3.93694 86.2343 4.01304 86.4643 4.16423C86.6942 4.31642 86.8091 4.55853 86.8091 4.89156V36.6626C86.8091 36.9956 86.7092 37.2457 86.5092 37.4117C86.3113 37.5787 86.0504 37.6617 85.7295 37.6617H78.9291C78.6232 37.6617 78.3743 37.5787 78.1824 37.4117C77.9915 37.2457 77.8955 36.9966 77.8955 36.6626V23.7635H66.4788V36.6626C66.4788 36.9808 66.3749 37.2259 66.1689 37.4008C65.962 37.5747 65.6821 37.6617 65.3293 37.6617H58.5758C57.9331 37.6617 57.6042 37.3662 57.5882 36.7763V4.93702ZM120.439 37.2763C120.24 37.4423 120.03 37.5481 119.808 37.5935C119.6 37.6377 119.389 37.6609 119.177 37.6627H115.708C115.432 37.6627 115.194 37.6133 114.995 37.5145C114.796 37.4156 114.628 37.2832 114.49 37.1172C114.349 36.9447 114.233 36.7534 114.146 36.549C114.053 36.3354 113.976 36.1154 113.916 35.8908L113.204 32.9835C112.974 33.4529 112.641 33.9865 112.205 34.5844C111.732 35.2189 111.171 35.7844 110.539 36.2644C109.865 36.7881 109.061 37.2269 108.127 37.5826C107.192 37.9384 106.121 38.1163 104.91 38.1163C103.165 38.1163 101.58 37.7833 100.155 37.1172C98.7605 36.473 97.5197 35.5441 96.5145 34.3917C95.5118 33.2414 94.7341 31.8975 94.1833 30.3598C93.6315 28.8241 93.3556 27.1847 93.3556 25.4444V10.5688C93.3556 9.9937 93.4826 9.55889 93.7355 9.26341C93.9874 8.96794 94.3892 8.82069 94.941 8.82069H100.247C100.907 8.82069 101.358 8.9294 101.603 9.14977C101.847 9.36915 101.97 9.79705 101.97 10.4325V25.2161C101.97 25.8684 102.12 26.485 102.418 27.0681C102.717 27.6511 103.111 28.165 103.602 28.6116C104.092 29.0583 104.646 29.4111 105.267 29.668C105.887 29.925 106.519 30.0534 107.162 30.0534C107.713 30.0534 108.284 29.925 108.874 29.668C109.467 29.4078 110.017 29.0592 110.504 28.6344C111.002 28.2035 111.412 27.6956 111.734 27.1125C112.056 26.5295 112.215 25.9128 112.215 25.2626V10.5007C112.215 10.2437 112.265 9.98678 112.365 9.72886C112.465 9.47193 112.614 9.27428 112.813 9.13791C113.012 9.01735 113.2 8.93434 113.376 8.88888C113.552 8.84342 113.756 8.81971 113.985 8.81971H119.177C119.835 8.81971 120.309 8.9798 120.6 9.29701C120.891 9.61522 121.037 10.0392 121.037 10.5688V35.9817C121.037 36.2683 120.972 36.5341 120.842 36.7763C120.712 37.0184 120.532 37.2081 120.302 37.3435L120.439 37.2763ZM147.11 34.1417C146.696 34.5508 146.241 34.9896 145.744 35.459C145.246 35.9284 144.698 36.3681 144.101 36.7763C143.501 37.187 142.853 37.5263 142.172 37.7872C141.461 38.0562 140.705 38.1909 139.943 38.1845C137.861 38.1845 135.943 37.7991 134.188 37.0263C132.478 36.2845 130.938 35.2065 129.663 33.8581C128.399 32.5181 127.412 30.9399 126.7 29.1225C125.987 27.3062 125.631 25.3535 125.631 23.2634C125.631 21.1585 125.987 19.2019 126.7 17.3934C127.412 15.585 128.399 14.0098 129.663 12.6698C130.937 11.3226 132.477 10.2483 134.188 9.51343C135.943 8.74855 137.861 8.36611 139.943 8.36611C140.786 8.36611 141.555 8.48767 142.252 8.72978C142.924 8.96004 143.565 9.27279 144.158 9.66067C144.733 10.0392 145.261 10.4671 145.744 10.9434C146.226 11.4207 146.681 11.8861 147.11 12.3407V1.9615C147.11 1.47728 147.26 1.06915 147.558 0.73612C147.857 0.402104 148.305 0.236084 148.903 0.236084H154.071C154.271 0.236084 154.48 0.277589 154.702 0.360599C154.924 0.444597 155.127 0.561206 155.312 0.713391C155.495 0.864588 155.644 1.04642 155.759 1.2579C155.874 1.47036 155.932 1.70457 155.932 1.9615V35.9136C155.932 37.0796 155.312 37.6627 154.071 37.6627H149.568C149.262 37.6627 149.025 37.6232 148.857 37.5481C148.69 37.474 148.544 37.3611 148.431 37.219C148.303 37.0523 148.199 36.8691 148.121 36.6745C148.013 36.4181 147.898 36.1644 147.777 35.9136L147.11 34.1417ZM133.901 23.2634C133.894 24.2184 134.053 25.1676 134.372 26.069C134.686 26.9386 135.134 27.6926 135.717 28.328C136.305 28.9684 137.02 29.4824 137.818 29.838C138.637 30.2096 139.545 30.3944 140.541 30.3944C141.52 30.3944 142.443 30.2205 143.309 29.8726C144.149 29.5397 144.917 29.0498 145.571 28.4298C146.22 27.8089 146.746 27.0736 147.122 26.2617C147.512 25.4286 147.731 24.5353 147.777 23.5816V23.2634C147.78 22.3131 147.593 21.3715 147.225 20.4935C146.869 19.6327 146.351 18.8466 145.698 18.1771C145.043 17.5084 144.263 16.9723 143.401 16.5989C142.499 16.2086 141.525 16.0113 140.541 16.0198C139.545 16.0198 138.637 16.2125 137.818 16.5989C136.998 16.9843 136.298 17.511 135.717 18.1771C135.125 18.8589 134.669 19.6447 134.372 20.4935C134.057 21.3835 133.898 22.3204 133.902 23.2634H133.901ZM182.603 34.1417C182.189 34.5508 181.733 34.9896 181.235 35.459C180.738 35.9284 180.19 36.3681 179.593 36.7763C178.992 37.187 178.345 37.5263 177.664 37.7872C176.952 38.0562 176.196 38.1909 175.435 38.1845C173.352 38.1845 171.434 37.7991 169.681 37.0263C167.97 36.2846 166.43 35.2066 165.154 33.8581C163.892 32.5181 162.903 30.9399 162.192 29.1225C161.48 27.3062 161.123 25.3535 161.123 23.2634C161.123 21.1585 161.48 19.2019 162.192 17.3934C162.903 15.585 163.891 14.0098 165.154 12.6698C166.429 11.3225 167.969 10.2482 169.681 9.51343C171.434 8.74855 173.352 8.36611 175.435 8.36611C176.277 8.36611 177.047 8.48767 177.744 8.72978C178.416 8.96004 179.056 9.27279 179.65 9.66067C180.225 10.0392 180.753 10.4671 181.235 10.9434C181.718 11.4207 182.173 11.8861 182.602 12.3407V1.9615C182.602 1.47728 182.752 1.06915 183.05 0.73612C183.35 0.402104 183.796 0.236084 184.394 0.236084H189.562C189.762 0.236084 189.972 0.277589 190.194 0.360599C190.417 0.444597 190.62 0.561206 190.804 0.713391C190.987 0.864588 191.137 1.04642 191.252 1.2579C191.366 1.47036 191.423 1.70457 191.423 1.9615V35.9136C191.423 37.0796 190.804 37.6627 189.562 37.6627H185.06C184.754 37.6627 184.516 37.6232 184.348 37.5481C184.182 37.4739 184.036 37.361 183.923 37.219C183.795 37.0523 183.691 36.8691 183.613 36.6745C183.505 36.4181 183.39 36.1644 183.269 35.9136L182.602 34.1417H182.603ZM169.393 23.2634C169.385 24.2184 169.544 25.1676 169.864 26.069C170.179 26.9386 170.626 27.6926 171.208 28.328C171.797 28.9686 172.512 29.4825 173.31 29.838C174.13 30.2096 175.037 30.3944 176.032 30.3944C177.012 30.3944 177.935 30.2205 178.8 29.8726C179.641 29.5398 180.41 29.0499 181.063 28.4298C181.712 27.8087 182.237 27.0734 182.613 26.2617C183.004 25.4286 183.223 24.5353 183.269 23.5816V23.2634C183.272 22.3131 183.084 21.3715 182.717 20.4935C182.361 19.6327 181.842 18.8466 181.189 18.1771C180.535 17.5084 179.754 16.9723 178.892 16.5989C177.991 16.2086 177.016 16.0113 176.032 16.0198C175.037 16.0198 174.129 16.2125 173.31 16.5989C172.491 16.9843 171.79 17.511 171.208 18.1771C170.617 18.8589 170.161 19.6447 169.864 20.4935C169.548 21.3835 169.389 22.3204 169.394 23.2634H169.393ZM197.535 1.98423C197.535 1.50001 197.657 1.09188 197.902 0.758849C198.148 0.424833 198.569 0.258813 199.166 0.258813H204.793C204.947 0.258813 205.108 0.300318 205.276 0.383328C205.453 0.472847 205.612 0.592249 205.747 0.73612C205.893 0.887317 206.015 1.06915 206.115 1.28063C206.215 1.49309 206.265 1.7273 206.265 1.98423V35.9136C206.265 36.4887 206.1 36.9235 205.77 37.219C205.441 37.5145 205.016 37.6617 204.496 37.6617H199.166C198.569 37.6617 198.148 37.5135 197.902 37.219C197.657 36.9235 197.535 36.4877 197.535 35.9136V1.98423ZM236.221 34.2099C234.889 35.4263 233.349 36.399 231.672 37.0826C229.975 37.7741 228.155 38.1255 226.319 38.1163C224.22 38.1163 222.238 37.7378 220.37 36.9798C218.543 36.2502 216.875 35.183 215.453 33.8353C214.037 32.4852 212.898 30.8772 212.1 29.0998C211.272 27.2835 210.859 25.308 210.859 23.1725C210.859 21.8404 211.023 20.5498 211.353 19.3007C211.672 18.0785 212.142 16.9002 212.754 15.7925C213.359 14.7023 214.1 13.6914 214.96 12.7834C215.817 11.8739 216.794 11.0831 217.865 10.4325C218.955 9.77348 220.13 9.26166 221.357 8.91062C222.649 8.54255 223.987 8.35919 225.331 8.36611C226.602 8.36611 227.835 8.53312 229.029 8.86615C230.224 9.19918 231.346 9.66858 232.395 10.2734C233.445 10.8791 234.404 11.6065 235.278 12.4544C236.139 13.2881 236.895 14.2222 237.529 15.2362C238.157 16.2428 238.648 17.327 238.988 18.4607C239.332 19.6041 239.505 20.781 239.505 21.9916C239.505 22.7792 239.493 23.4225 239.47 23.9226C239.447 24.4216 239.328 24.8199 239.114 25.1144C238.9 25.4108 238.545 25.6144 238.046 25.727C237.548 25.8417 236.816 25.898 235.853 25.898H219.313C219.466 26.8665 219.776 27.6768 220.243 28.329C220.675 28.9463 221.225 29.4744 221.862 29.8835C222.475 30.2699 223.125 30.5456 223.815 30.7136C224.454 30.8734 225.109 30.957 225.767 30.9626C226.319 30.9626 226.885 30.9053 227.467 30.7926C228.04 30.6814 228.605 30.5295 229.156 30.3381C229.672 30.1609 230.171 29.9404 230.649 29.6789C231.1 29.4299 231.464 29.168 231.74 28.8962C231.985 28.6986 232.196 28.5514 232.372 28.4525C232.548 28.3537 232.736 28.3053 232.935 28.3053C233.135 28.3053 233.337 28.3745 233.545 28.5099C233.796 28.6839 234.031 28.8815 234.244 29.0998L236.679 31.8253C236.847 32.023 236.955 32.2008 237.001 32.3589C237.047 32.5181 237.07 32.6811 237.07 32.8471C237.07 33.1505 236.985 33.4114 236.817 33.6308C236.648 33.8515 236.446 34.0466 236.22 34.2099H236.221ZM225.171 15.2925C224.573 15.2925 223.995 15.4101 223.436 15.6443C222.869 15.8837 222.339 16.2011 221.862 16.5871C221.372 16.9804 220.932 17.427 220.541 17.9271C220.168 18.3985 219.849 18.9088 219.588 19.4489H231.326C231.019 18.8796 230.669 18.333 230.282 17.8134C229.913 17.3205 229.481 16.8776 228.995 16.4961C228.499 16.1102 227.939 15.8107 227.341 15.6107C226.721 15.3982 225.997 15.2925 225.171 15.2925Z" fill="white"/>
</g>
<defs>
<clipPath id="clip0_10_139">
<rect width="239.909" height="38.5403" fill="white"/>
</clipPath>
</defs>
</svg>
